inDegrees=no
num_controls=7
num_derivatives=13
num_iterations=157
num_multipliers=7
num_parameters=0
num_slacks=7
num_states=26
objective=5.656223
objective_accelerations=0.877353
objective_balance=0.026866
objective_effort=0.200066
objective_height=4.431895
objective_ligament=0.120044
solver_duration=1738.689013
status=Solve_Succeeded
success=true
DataType=double
version=3
OpenSimVersion=4.4-2022-07-23-0e9fedc
endheader
time	/jointset/ground_pelvis/pelvis_tilt/value	/jointset/ground_pelvis/pelvis_tx/value	/jointset/ground_pelvis/pelvis_ty/value	/jointset/hip_l/hip_flexion_l/value	/jointset/hip_l/hip_adduction_l/value	/jointset/hip_l/hip_rotation_l/value	/jointset/back/lumbar_extension/value	/jointset/patellofemoral_l/patellar_flexion_l/value	/jointset/knee_l/knee_flexion_l/value	/jointset/knee_l/knee_adduction_l/value	/jointset/knee_l/knee_rotation_l/value	/jointset/ankle_l/ankle_angle_l/value	/jointset/subtalar_l/subtalar_angle_l/value	/jointset/ground_pelvis/pelvis_tilt/speed	/jointset/ground_pelvis/pelvis_tx/speed	/jointset/ground_pelvis/pelvis_ty/speed	/jointset/hip_l/hip_flexion_l/speed	/jointset/hip_l/hip_adduction_l/speed	/jointset/hip_l/hip_rotation_l/speed	/jointset/back/lumbar_extension/speed	/jointset/patellofemoral_l/patellar_flexion_l/speed	/jointset/knee_l/knee_flexion_l/speed	/jointset/knee_l/knee_adduction_l/speed	/jointset/knee_l/knee_rotation_l/speed	/jointset/ankle_l/ankle_angle_l/speed	/jointset/subtalar_l/subtalar_angle_l/speed	/forceset/tau_hip_flexion_l	/forceset/tau_hip_adduction_l	/forceset/tau_hip_rotation_l	/forceset/tau_knee_flexion_l	/forceset/tau_ankle_angle_l	/forceset/tau_subtalar_angle_l	/forceset/tau_lumbar_extension	lambda_cid13_p0	lambda_cid13_p1	lambda_cid13_p2	lambda_cid13_p3	lambda_cid13_p4	lambda_cid13_p5	lambda_cid14_p0	/jointset/ground_pelvis/pelvis_tilt/accel	/jointset/ground_pelvis/pelvis_tx/accel	/jointset/ground_pelvis/pelvis_ty/accel	/jointset/hip_l/hip_flexion_l/accel	/jointset/hip_l/hip_adduction_l/accel	/jointset/hip_l/hip_rotation_l/accel	/jointset/back/lumbar_extension/accel	/jointset/patellofemoral_l/patellar_flexion_l/accel	/jointset/knee_l/knee_flexion_l/accel	/jointset/knee_l/knee_adduction_l/accel	/jointset/knee_l/knee_rotation_l/accel	/jointset/ankle_l/ankle_angle_l/accel	/jointset/subtalar_l/subtalar_angle_l/accel	gamma_cid13_p0	gamma_cid13_p1	gamma_cid13_p2	gamma_cid13_p3	gamma_cid13_p4	gamma_cid13_p5	gamma_cid14_p0
1	-0.5332087547707101	-0.01059372201162679	0.5495116308120123	1.889873593672774	-0.3394402003414133	0.1630519417326153	-0.4363314157581571	1.608105202795104	1.608105202795115	0.07884853935134706	-0.1745320480342855	0.4346253904989668	0.2602775827281218	-0.1447787457636888	-0.005922785312892886	0.0324491735190658	0.03407911897861253	-0.0003262314010883112	-0.06532401414677597	2.955244104181102e-06	-0.1500707457475168	-0.1500707457475228	0.004356255404903242	2.947898600620348e-06	-0.05274178838411441	-0.03317727647454068	-0.2821899982561825	0.031730826804213	-0.01664107509967975	-0.2769136507890989	-0.05955866365286601	0.008704349625343119	0.2327573694349399	-52.4131817925853	10.25271276436727	-7.46211417715502	10.16873023954255	-553.4104780133565	-64.30806155454846	-0.02317443970384919	1.691860776490381	0.130211883397675	2.247513424334969	-7.325502212103742	-0.3096514277142511	-1.760821875699163	-0.0191245245434444	-5.934039001253351	-5.934039001253432	-0.8924758292365387	-0.03873710258214306	-0.8232474277575085	-1.001188350334039	-2.068973243187061e-09	-1.550502185808322e-07	-4.927516283754545e-08	-1.617527071868782e-08	-8.937770858547698e-09	-2.088388107728146e-07	3.565388781763229e-09
1.01	-0.5345726916365703	-0.01064643951237163	0.5499482826894395	1.889849187979518	-0.3394580579420176	0.1623127782943481	-0.4363313856751829	1.606308187350759	1.606308187350766	0.07884656071001094	-0.1745320135832176	0.4340568046504149	0.2598972305904621	-0.127997300706285	-0.004613406594737979	0.05487127937376423	-0.03894523335830387	-0.003236371414668457	-0.08249821012079439	2.997426235048398e-06	-0.2093252302815746	-0.2093252302815765	-0.004743803015003632	4.025425456676818e-06	-0.06099100653852684	-0.04288160697709698	-0.2825397582989549	0.03178657219791273	-0.01669324104968132	-0.2760371735702559	-0.05974776463014648	0.008762511492419316	0.2329222794805237	-52.43181875883182	10.19585320015012	-7.413227380346562	10.05811861248665	-553.2034368144781	-64.17456953310032	-0.02319134588093455	1.672985331654582	0.1323916343762617	2.238067756926379	-7.288648274974302	-0.2803469988685558	-1.694160072037657	0.009559001738497804	-5.920087070048275	-5.920087070047598	-0.9175577651121734	0.0195142022402157	-0.8281125373952023	-0.9532828048025775	-2.67695299939035e-09	-2.007473610074916e-07	-7.613255751194348e-08	-2.72284319864641e-08	-1.503949343079913e-08	-2.60293314210971e-07	4.077699940175849e-09
1.02	-0.5357684742596015	-0.01068584507226467	0.5506088573435923	1.889094989456792	-0.3395047472848954	0.1614021845735756	-0.4363313570879517	1.60391884028296	1.60391884028296	0.07875382410119944	-0.1745319715525019	0.433405255914699	0.2594201896668594	-0.1111478971973089	-0.003260397142531311	0.07723372886404478	-0.111879446914764	-0.006092579855790399	-0.09961007064619544	2.656094261374591e-06	-0.2685370704382831	-0.2685370704382799	-0.01379533810469066	4.463829141166595e-06	-0.06933436581742031	-0.05251503366309998	-0.2828895183417234	0.03184231759158252	-0.01674540699947118	-0.2751606963514092	-0.05993686560743485	0.0088206733594372	0.233087189526106	-52.45378448589956	10.13884331753594	-7.363478820935518	9.948111741559059	-553.095346667126	-64.03043812963261	-0.02320966364621798	1.70545246680476	0.1389380302080862	2.235582151451401	-7.307474456012515	-0.2988651132226715	-1.748354785975662	-0.01920122736402723	-5.925510125783461	-5.925510125783376	-0.8827711631926468	-0.03886492721653734	-0.8420756526536056	-0.9870075870234085	-3.353249360312663e-09	-2.451379935061253e-07	-1.014164127408879e-07	-3.768100441215097e-08	-2.108638105592305e-08	-3.082673584003094e-07	4.313032181087548e-09
1.03	-0.5367953876170063	-0.01071144459001447	0.5514926763861163	1.88761204749162	-0.3395796906528986	0.1603208049437648	-0.4363313391894434	1.600937684324418	1.600937684324413	0.07857089613196225	-0.1745319309849983	0.4326697379679895	0.2588472123345826	-0.09422047629641797	-0.001846473932422817	0.09951203230474662	-0.1846792105620224	-0.008883219554495234	-0.1166498071794142	7.215987904051469e-07	-0.3276775607816734	-0.3276775607816739	-0.0227777617548875	4.01497342611376e-06	-0.07779112463550061	-0.06206404602560871	-0.2829248264673208	0.03186405999090363	-0.01675969731081547	-0.2742106288806281	-0.05988999179940944	0.008956164938103209	0.2330649503489092	-52.36565483579184	10.02011274077233	-7.293770962717669	9.730106938386879	-552.6902927795483	-63.96274997854935	-0.02323453273104035	1.688530498693538	0.1445646490282458	2.221241876802448	-7.261768325771989	-0.2672128167923694	-1.679392727863478	0.009280139040144264	-5.905835325827813	-5.905835325828477	-0.9041253742222247	0.01937605801609906	-0.8507752877500425	-0.9363287411118064	-4.030242829446394e-09	-2.895152942707996e-07	-1.266842114448787e-07	-4.812744838026548e-08	-2.713270914077017e-08	-3.562058876993538e-07	4.545538106514542e-09
1.04	-0.5376525980460068	-0.01072251583914023	0.5525987359503325	1.885401999688634	-0.3396821503016086	0.1590695060204488	-0.4363313466959545	1.597365620094999	1.597365620094992	0.07829851444459104	-0.1745318927214923	0.4318489925748267	0.2581792487426313	-0.07720731151703922	-0.0003547434177235284	0.1216818332023911	-0.2573006144768616	-0.01159583599712152	-0.1335939293473735	-2.424909523503356e-06	-0.3867187246135003	-0.3867187246135055	-0.03168608173664511	4.003028313743381e-06	-0.0863798551081682	-0.07151228559800464	-0.2829601345929473	0.03188580239021833	-0.01677398762208508	-0.2732605614098392	-0.05984311799137657	0.009091656516762114	0.2330427111716817	-52.28116253943391	9.901331690679447	-7.223269603471875	9.513587403826529	-552.3853945420088	-63.88545156592538	-0.02326076650815126	1.722601242502238	0.1544994911263038	2.213881642839949	-7.271802509528697	-0.2832604620070215	-1.729231912923732	-0.0194436299322736	-5.905644823470743	-5.905644823470915	-0.8679504295048792	-0.03877754509607884	-0.8684699835709568	-0.9668530290008752	-4.796272552221497e-09	-3.310297915133276e-07	-1.493775957073071e-07	-5.752004553451549e-08	-3.283239160924854e-08	-3.980560505598577e-07	4.391751094785688e-09
1.05	-0.5383392013421254	-0.01071822125441655	0.5539258695067275	1.882466759725599	-0.3398113227672367	0.157649256659557	-0.4363313902329299	1.593203741938877	1.593203741938879	0.0779374947349369	-0.1745318768833086	0.430941647837598	0.2574173324311727	-0.0600955467943388	0.001232501976566288	0.1437187295392681	-0.329704539817701	-0.01422244373237682	-0.1504335942787706	-5.347058294519431e-06	-0.4456304254488942	-0.4456304254489314	-0.04050249992038371	-3.980532617223762e-07	-0.09511577717202328	-0.08084982961955368	-0.282695262690397	0.03187812610876048	-0.01675180531951832	-0.2722241247050722	-0.05957130230372353	0.00930056670512837	0.2328449469708412	-52.09110172553148	9.723506230031951	-7.13344699574725	9.19074122646952	-551.7864368691965	-63.87820562837985	-0.02329322682090473	1.708132142786446	0.1636498353444732	2.194663586811979	-7.218264232670121	-0.2499012847395246	-1.658004098139838	0.009423807718420095	-5.879961382745486	-5.879961382750263	-0.8862125995829216	0.01873652986353908	-0.880174319471375	-0.9139529845551494	-5.565084657922894e-09	-3.724548261457886e-07	-1.719905295184366e-07	-6.687970997583224e-08	-3.852124140221539e-08	-4.397159519691573e-07	4.225892428770716e-09
1.06	-0.5388541533798812	-0.01069749166139748	0.5554725860180321	1.878808765171896	-0.3399662693813066	0.15606127658637	-0.4363314349283797	1.588453541040566	1.588453541040572	0.07748876582615177	-0.1745319034720042	0.4299461396793968	0.2565626911003338	-0.04287705984634606	0.002932258241353297	0.1655984241841956	-0.4018515326108886	-0.0167506656858241	-0.1671400718058548	-2.656604345915125e-06	-0.5043832730511543	-0.504383273051222	-0.04922792157510456	-4.482352764931231e-06	-0.1040125393030158	-0.09005728947403022	-0.2824303907878655	0.03187044982729025	-0.01672962301676518	-0.2711876880002923	-0.05929948661606503	0.009509476893474362	0.2326471827699818	-51.90509396280044	9.54574299274738	-7.042894465273354	8.870468462517305	-551.2892788216222	-63.86282873025532	-0.02332702520919524	1.743945687560645	0.1770016652257888	2.182441304450048	-7.220415999998345	-0.2635833056454494	-1.702594432061092	-0.0183211093880037	-5.873874176843972	-5.873874176843845	-0.8497511237013982	-0.03871418868165004	-0.9006379969983533	-0.9408361955863676	-6.148988944445369e-09	-4.101216310741636e-07	-1.923373233236001e-07	-7.518916514435883e-08	-4.3601454534735e-08	-4.764852240346769e-07	4.038212331786021e-09
1.07	-0.5391963471388889	-0.01065916025488552	0.5572372294417774	1.874430736104881	-0.3401459836724018	0.1543068932750156	-0.4363314908829634	1.583116696642622	1.583116696642618	0.07695332118411762	-0.1745319967947063	0.4288607816682986	0.2556166334314515	-0.02554166984741253	0.004756810489128259	0.1872957547825897	-0.4736961201320952	-0.0191715981531564	-0.1837086332078723	-1.267539915317584e-05	-0.5629502208529589	-0.5629502208529594	-0.05784180566854957	-1.153822071003637e-05	-0.1130928152018691	-0.09912807170136638	-0.2818284825071141	0.03184629203792225	-0.01667265490731346	-0.2700609407700209	-0.05881077176627603	0.009786107203183387	0.2322362484308035	-51.6166937904611	9.312810025606735	-6.934602117509285	8.465715395673998	-550.4689249768016	-63.90816747939159	-0.02336755559944905	1.731336067384072	0.1885833135688233	2.158193268962912	-7.157759386625679	-0.2282238683449234	-1.629821079034252	0.007036573138823266	-5.842797996371403	-5.842797996361584	-0.8643631804957981	0.01862537491679631	-0.9168072085703125	-0.8861764163192218	-6.723057708671091e-09	-4.475885301672149e-07	-2.12563577766744e-07	-8.344275811752424e-08	-4.864929337680527e-08	-5.129943562414849e-07	3.849371520388042e-09
